<?xml version="1.0" encoding="UTF-8" standalone="no"?>
<!DOCTYPE svg PUBLIC "-//W3C//DTD SVG 1.1//EN" "http://www.w3.org/Graphics/SVG/1.1/DTD/svg11.dtd">
<svg width="100%" height="100%" viewBox="0 0 1520 1520" version="1.1" xmlns="http://www.w3.org/2000/svg" xmlns:xlink="http://www.w3.org/1999/xlink" xml:space="preserve" xmlns:serif="http://www.serif.com/" style="fill-rule:evenodd;clip-rule:evenodd;stroke-linejoin:round;stroke-miterlimit:2;">
    <g transform="matrix(1,0,0,1,-9007.481216,-3796.16438)">
        <g id="Página-3" serif:id="Página 3" transform="matrix(4.166667,0,0,4.166667,9007.481216,3796.16438)">
            <rect x="0" y="0" width="364.595" height="364.595" style="fill:none;"/>
            <g transform="matrix(1,0,0,1,0,0.001)">
                <g id="Capa-1" serif:id="Capa 1">
                    <rect x="0" y="0" width="364.594" height="364.594" style="fill:white;"/>
                </g>
            </g>
            <g transform="matrix(2.345963,0,0,2.345963,-403.309563,-16.172114)">
                <path d="M237.023,84.241L223.055,84.241L239.831,36.001L259.487,36.001L276.191,84.241L261.359,84.241L258.407,74.953L240.119,74.953L237.023,84.241ZM244.943,60.337L244.007,63.145L254.591,63.145L253.727,60.337L249.911,47.737L248.903,47.737L244.943,60.337Z"/>
            </g>
            <g transform="matrix(2.345963,0,0,2.345963,-403.731837,98.686236)">
                <path d="M269.567,84.241L230.039,84.241L230.039,76.681C230.039,67.681 234.431,64.441 240.695,61.417L253.511,55.153C255.599,54.145 256.463,53.425 256.463,51.265C256.463,48.529 255.023,47.593 249.839,47.593C244.079,47.593 243.143,48.961 243.143,52.705L243.143,54.001L229.607,54.001L229.607,52.849C229.607,43.201 235.511,35.281 250.919,35.281C264.239,35.281 269.999,42.193 269.999,50.977C269.999,60.193 263.231,64.441 256.895,66.601L247.895,69.625C245.087,70.561 244.655,71.497 244.655,72.793L251.567,72.073L269.567,72.073L269.567,84.241Z" style="fill:rgb(124,214,4);"/>
            </g>
        </g>
    </g>
</svg>
